<!DOCTYPE svg PUBLIC "-//W3C//DTD SVG 20010904//EN" "http://www.w3.org/TR/2001/REC-SVG-20010904/DTD/svg10.dtd">
<svg version="1.0" xmlns="http://www.w3.org/2000/svg" width="686px" height="284px" viewBox="0 0 6860 2840" preserveAspectRatio="xMidYMid meet">
<g id="layer1" fill="#ffffff" stroke="none">
 <path d="M1960 2660 l0 -180 40 0 40 0 0 180 0 180 -40 0 -40 0 0 -180z"/>
 <path d="M2090 2659 l0 -180 46 3 47 3 61 107 61 107 3 -110 3 -109 39 0 40 0 0 180 0 180 -39 0 c-39 0 -41 -2 -89 -82 -27 -46 -57 -96 -65 -113 -16 -29 -16 -26 -17 83 l0 112 -45 0 -45 0 0 -181z"/>
 <path d="M2673 2820 c-52 -31 -76 -90 -71 -176 4 -78 18 -108 70 -147 38 -28 116 -34 163 -11 40 19 75 66 75 102 0 19 -5 22 -35 22 -29 0 -37 -5 -45 -25 -5 -14 -21 -30 -36 -35 -80 -31 -139 66 -103 169 13 36 35 51 76 51 36 0 49 -9 62 -43 9 -23 16 -27 51 -27 38 0 41 2 35 23 -4 12 -9 30 -11 39 -3 9 -21 31 -40 47 -31 28 -42 31 -97 31 -44 0 -71 -6 -94 -20z"/>
 <path d="M3029 2817 c-65 -43 -98 -155 -68 -234 34 -90 143 -137 232 -99 127 53 141 262 23 335 -48 30 -141 29 -187 -2z m136 -53 c45 -18 62 -140 25 -187 -64 -81 -173 -5 -155 106 12 68 69 104 130 81z"/>
 <path d="M3340 2660 l0 -180 43 0 43 0 62 108 62 107 0 -107 0 -108 45 0 45 0 -2 178 -3 177 -40 3 -40 2 -67 -117 -68 -118 0 118 0 117 -40 0 -40 0 0 -180z"/>
 <path d="M3770 2695 l0 -145 -50 0 -50 0 0 -35 0 -35 145 0 145 0 0 35 0 35 -50 0 -50 0 0 145 0 145 -45 0 -45 0 0 -145z"/>
 <path d="M3990 2660 l0 -180 135 0 135 0 0 35 0 35 -90 0 -90 0 0 30 0 30 80 0 80 0 0 40 0 40 -80 0 -80 0 0 35 0 34 93 3 92 3 0 35 0 35 -137 3 -138 3 0 -181z"/>
 <path d="M4310 2659 l0 -180 43 3 42 3 60 105 60 104 3 -107 3 -107 39 0 40 0 0 180 0 180 -39 0 -39 0 -63 -111 -64 -111 -3 111 -3 111 -39 0 -40 0 0 -181z"/>
 <path d="M4740 2695 l0 -145 -55 0 -55 0 0 -35 0 -35 150 0 150 0 0 35 0 35 -55 0 -55 0 0 145 0 145 -40 0 -40 0 0 -145z"/>
 <path d="M215 2706 c-90 -28 -163 -84 -196 -147 -19 -38 -19 -63 -17 -981 l3 -943 28 -42 c33 -49 83 -85 158 -116 54 -22 58 -22 776 -25 717 -3 723 -3 723 17 0 20 -8 20 -723 23 -679 3 -725 4 -771 22 -65 25 -141 99 -155 151 -15 57 -15 1779 0 1841 14 54 73 118 137 147 47 22 54 22 780 25 721 2 732 3 732 22 0 20 -9 20 -717 19 -550 0 -727 -3 -758 -13z"/>
 <path d="M5170 2700 c0 -19 11 -20 733 -22 l732 -3 57 -28 c64 -32 113 -84 128 -137 6 -22 10 -379 10 -930 0 -1011 5 -940 -80 -1013 -88 -75 -50 -71 -857 -75 -715 -3 -723 -3 -723 -23 0 -20 6 -20 723 -17 526 3 732 7 757 16 70 23 144 76 178 126 l32 48 0 940 c0 912 -1 940 -20 977 -30 60 -103 118 -178 141 -61 19 -93 20 -778 20 -704 0 -714 0 -714 -20z"/>
 <path d="M474 2070 c-162 -23 -271 -145 -295 -332 -26 -195 37 -365 163 -444 88 -56 229 -67 343 -28 93 33 185 152 185 241 0 22 -3 23 -79 23 l-79 0 -23 -47 c-35 -68 -67 -88 -142 -88 -125 0 -187 77 -195 242 -7 157 41 257 137 283 100 27 192 -22 210 -113 l7 -32 87 -3 c48 -1 87 1 87 6 0 32 -35 131 -59 166 -67 97 -201 146 -347 126z"/>
 <path d="M1030 1650 l0 -400 223 0 c240 1 294 8 344 46 103 78 105 268 4 342 -16 12 -36 22 -43 22 -7 0 1 8 19 16 55 27 65 55 72 185 5 91 10 121 24 136 9 11 17 27 17 36 0 15 -13 17 -93 17 -91 0 -94 -1 -105 -25 -7 -15 -12 -73 -12 -131 0 -98 -2 -107 -25 -129 -23 -24 -31 -25 -135 -25 l-110 0 0 155 0 155 -90 0 -90 0 0 -400z m433 -71 c31 -17 37 -28 37 -80 0 -31 -6 -55 -19 -70 -18 -23 -27 -24 -148 -27 l-128 -4 3 96 3 96 115 0 c68 0 124 -5 137 -11z"/>
 <path d="M1810 1650 l0 -400 290 0 290 0 0 75 0 75 -205 0 -205 0 0 85 0 85 190 0 190 0 0 70 0 70 -190 0 -190 0 0 95 0 95 215 0 215 0 0 75 0 75 -300 0 -300 0 0 -400z"/>
 <path d="M2485 2033 c4 -10 65 -181 135 -380 71 -199 134 -371 140 -383 10 -18 20 -20 99 -20 75 0 90 3 96 18 4 9 49 141 102 292 52 151 110 319 129 373 19 55 34 103 34 108 0 6 -37 9 -87 7 l-87 -3 -25 -77 -25 -78 -142 0 -142 0 -27 80 -27 80 -90 0 c-82 0 -89 -2 -83 -17z m421 -410 c-24 -71 -45 -135 -48 -143 -2 -8 -24 44 -48 115 -24 72 -45 136 -48 143 -3 9 19 12 91 12 l96 0 -43 -127z"/>
 <path d="M3490 1725 l0 -325 -120 0 -120 0 0 -75 0 -75 320 0 320 0 0 75 0 75 -115 0 -115 0 0 325 0 325 -85 0 -85 0 0 -325z"/>
 <path d="M3980 1650 l0 -400 85 0 85 0 0 400 0 400 -85 0 -85 0 0 -400z"/>
 <path d="M4392 1658 c-73 -216 -132 -397 -132 -401 0 -4 39 -6 86 -5 l86 3 79 270 c44 149 82 277 85 285 5 13 44 -112 159 -507 l16 -53 84 0 c62 0 85 3 84 13 0 6 -60 185 -133 397 l-132 385 -75 3 -74 3 -133 -393z"/>
 <path d="M5020 1650 l0 -400 85 0 85 0 0 400 0 400 -85 0 -85 0 0 -400z"/>
 <path d="M5532 1725 l3 -325 -117 0 -118 0 0 -75 0 -75 320 0 320 0 0 75 0 75 -115 0 -115 0 0 325 0 325 -90 0 -91 0 3 -325z"/>
 <path d="M6260 1899 l0 -151 -54 -101 c-136 -256 -206 -389 -206 -393 0 -3 44 -3 97 -2 l97 3 75 163 c42 89 78 162 81 162 3 0 34 -69 70 -153 35 -83 68 -158 73 -164 6 -9 40 -13 103 -13 52 0 94 2 94 4 0 2 -56 114 -125 249 l-125 245 0 151 0 151 -90 0 -90 0 0 -151z"/>
 <path d="M2805 673 c45 -120 90 -242 99 -270 10 -29 22 -53 28 -53 22 0 69 43 64 57 -4 9 10 1 29 -16 20 -17 46 -31 59 -31 30 0 66 40 66 73 0 33 -24 94 -48 121 -10 12 1 7 29 -11 25 -17 51 -39 58 -47 8 -9 21 -14 30 -11 13 4 22 -10 40 -65 13 -39 28 -70 32 -70 6 0 56 21 87 36 1 1 -11 32 -28 69 -17 37 -29 70 -26 72 7 8 67 -72 93 -124 14 -29 28 -53 30 -53 3 0 20 9 39 20 l32 21 -28 84 c-16 47 -27 85 -24 85 3 0 30 -19 60 -41 30 -23 58 -39 61 -35 5 5 63 -134 63 -151 0 -2 -11 -3 -25 -3 -14 0 -25 -6 -25 -13 0 -21 22 -37 50 -37 22 0 29 -8 45 -51 11 -28 30 -59 41 -68 25 -20 102 -47 109 -39 3 3 -9 39 -28 79 l-34 74 49 -3 c37 -3 48 -1 48 10 0 26 -35 48 -77 48 -40 0 -41 1 -61 53 -25 62 -55 167 -50 172 2 2 27 -14 57 -37 39 -29 56 -37 64 -29 13 13 -36 68 -102 112 -54 36 -61 36 -101 2 -25 -20 -31 -32 -28 -54 l4 -27 -45 38 c-87 72 -137 84 -162 38 -6 -11 -8 -29 -6 -40 4 -14 -7 -8 -36 21 -51 51 -69 57 -103 35 -23 -16 -25 -23 -21 -57 l5 -39 -26 25 c-39 36 -123 87 -144 87 -26 0 -78 -28 -78 -41 0 -6 11 -19 23 -30 24 -18 83 -136 74 -146 -10 -9 -99 121 -132 192 -18 39 -47 113 -64 166 l-32 97 -44 11 c-24 6 -50 11 -58 11 -11 0 8 -60 68 -217z"/>
 <path d="M2366 609 c-20 -17 -36 -40 -36 -50 0 -19 -1 -19 -32 -3 -19 10 -44 14 -64 11 -25 -4 -37 0 -54 18 -12 13 -35 29 -51 35 -24 11 -34 9 -64 -9 l-35 -20 -36 21 c-36 21 -37 21 -70 3 -20 -11 -37 -29 -41 -43 -7 -28 16 -134 42 -195 l16 -39 40 24 c23 14 41 26 41 29 0 2 -11 42 -26 88 -15 46 -24 86 -21 89 7 7 55 -39 55 -53 0 -18 41 -139 50 -149 11 -11 92 35 86 48 -18 40 -47 148 -42 153 3 4 17 -4 31 -17 17 -16 25 -34 25 -57 0 -34 21 -95 41 -120 9 -10 17 -9 40 8 36 25 36 49 4 106 -22 36 -23 43 -10 43 23 0 93 -51 100 -72 10 -29 82 -86 126 -99 48 -15 84 -1 108 42 12 22 12 28 -3 51 -10 15 -46 41 -82 60 -41 21 -64 39 -64 51 0 10 7 17 18 17 29 -1 106 -40 139 -72 20 -19 38 -28 47 -25 26 10 19 24 -36 68 -58 46 -114 73 -170 83 -32 6 -41 2 -72 -25z m150 -196 c-9 -9 -36 18 -52 51 -15 30 -14 30 21 -7 20 -21 34 -41 31 -44z"/>
 <path d="M4674 630 c-21 -8 -59 -50 -66 -72 -2 -6 -25 5 -52 26 -52 39 -88 45 -124 20 -28 -19 -28 -37 2 -121 l25 -68 -35 40 c-19 22 -49 70 -67 107 -18 39 -38 68 -47 68 -28 0 -59 -34 -62 -69 l-3 -34 -45 38 c-25 21 -60 45 -78 53 -30 15 -34 14 -59 -4 -50 -37 -50 -44 -10 -163 20 -60 37 -112 37 -115 0 -4 -11 -6 -25 -6 -28 0 -29 -3 -15 -31 7 -12 21 -19 39 -19 24 0 30 -7 51 -56 20 -50 29 -59 74 -80 84 -39 91 -33 52 44 -43 85 -42 88 9 84 34 -3 45 -1 45 10 0 27 -35 48 -78 48 l-41 0 -36 111 c-20 61 -34 113 -32 116 2 2 27 -15 55 -37 29 -22 57 -39 63 -38 6 2 22 -27 34 -63 71 -207 206 -419 266 -419 25 0 79 46 79 67 0 44 -97 190 -188 286 -26 26 -41 47 -35 47 7 0 15 -5 18 -10 3 -6 19 -17 36 -25 26 -14 32 -14 58 0 17 8 32 19 36 25 3 5 -6 42 -20 81 -14 40 -24 76 -23 81 5 14 112 -72 137 -109 26 -41 88 -82 133 -89 27 -5 40 -1 66 21 45 38 42 67 -9 105 -23 16 -59 37 -80 47 -38 16 -49 35 -29 48 19 12 82 -14 136 -56 43 -33 57 -40 67 -30 25 26 -125 130 -208 144 -16 3 -40 1 -51 -3z m111 -187 c17 -25 15 -40 -4 -28 -6 3 -18 19 -26 35 -13 25 -13 29 -1 24 8 -3 22 -17 31 -31z m-277 -261 c36 -56 68 -127 52 -117 -11 7 -94 165 -86 165 2 0 18 -21 34 -48z"/>
 </g>

</svg>